<mxfile host="Electron" agent="Mozilla/5.0 (Windows NT 10.0; Win64; x64) AppleWebKit/537.36 (KHTML, like Gecko) draw.io/25.0.2 Chrome/128.0.6613.186 Electron/32.2.5 Safari/537.36" version="25.0.2">
  <diagram id="C5RBs43oDa-KdzZeNtuy" name="Page-1">
    <mxGraphModel dx="1050" dy="717" grid="1" gridSize="10" guides="1" tooltips="1" connect="1" arrows="1" fold="1" page="1" pageScale="1" pageWidth="827" pageHeight="1169" math="0" shadow="0">
      <root>
        <mxCell id="WIyWlLk6GJQsqaUBKTNV-0" />
        <mxCell id="WIyWlLk6GJQsqaUBKTNV-1" parent="WIyWlLk6GJQsqaUBKTNV-0" />
        <mxCell id="enlqpLdbjyHBV3dJq9Ab-1" value="START" style="ellipse;whiteSpace=wrap;html=1;" parent="WIyWlLk6GJQsqaUBKTNV-1" vertex="1">
          <mxGeometry x="320" y="505" width="120" height="80" as="geometry" />
        </mxCell>
        <mxCell id="enlqpLdbjyHBV3dJq9Ab-2" value="" style="edgeStyle=orthogonalEdgeStyle;rounded=0;orthogonalLoop=1;jettySize=auto;html=1;" parent="WIyWlLk6GJQsqaUBKTNV-1" target="enlqpLdbjyHBV3dJq9Ab-17" edge="1">
          <mxGeometry relative="1" as="geometry">
            <mxPoint x="380" y="690" as="sourcePoint" />
          </mxGeometry>
        </mxCell>
        <mxCell id="enlqpLdbjyHBV3dJq9Ab-3" value="num1" style="shape=parallelogram;perimeter=parallelogramPerimeter;whiteSpace=wrap;html=1;fixedSize=1;" parent="WIyWlLk6GJQsqaUBKTNV-1" vertex="1">
          <mxGeometry x="320" y="630" width="120" height="60" as="geometry" />
        </mxCell>
        <mxCell id="enlqpLdbjyHBV3dJq9Ab-4" value="" style="endArrow=classic;html=1;rounded=0;entryX=0.5;entryY=0;entryDx=0;entryDy=0;" parent="WIyWlLk6GJQsqaUBKTNV-1" target="enlqpLdbjyHBV3dJq9Ab-3" edge="1">
          <mxGeometry width="50" height="50" relative="1" as="geometry">
            <mxPoint x="380" y="585" as="sourcePoint" />
            <mxPoint x="430" y="450" as="targetPoint" />
          </mxGeometry>
        </mxCell>
        <mxCell id="enlqpLdbjyHBV3dJq9Ab-5" value="" style="endArrow=classic;html=1;rounded=0;" parent="WIyWlLk6GJQsqaUBKTNV-1" source="enlqpLdbjyHBV3dJq9Ab-17" edge="1">
          <mxGeometry width="50" height="50" relative="1" as="geometry">
            <mxPoint x="410" y="770" as="sourcePoint" />
            <mxPoint x="440" y="840" as="targetPoint" />
          </mxGeometry>
        </mxCell>
        <mxCell id="enlqpLdbjyHBV3dJq9Ab-6" value="" style="endArrow=classic;html=1;rounded=0;exitX=0;exitY=1;exitDx=0;exitDy=0;" parent="WIyWlLk6GJQsqaUBKTNV-1" source="enlqpLdbjyHBV3dJq9Ab-17" edge="1">
          <mxGeometry width="50" height="50" relative="1" as="geometry">
            <mxPoint x="350" y="770" as="sourcePoint" />
            <mxPoint x="320" y="840" as="targetPoint" />
          </mxGeometry>
        </mxCell>
        <mxCell id="enlqpLdbjyHBV3dJq9Ab-13" value="" style="endArrow=classic;html=1;rounded=0;entryX=0;entryY=0;entryDx=0;entryDy=0;exitX=0.5;exitY=1;exitDx=0;exitDy=0;exitPerimeter=0;" parent="WIyWlLk6GJQsqaUBKTNV-1" target="enlqpLdbjyHBV3dJq9Ab-15" edge="1" source="hPkYf3LlJRqYPQVfd92O-2">
          <mxGeometry width="50" height="50" relative="1" as="geometry">
            <mxPoint x="300" y="1000" as="sourcePoint" />
            <mxPoint x="320" y="1030" as="targetPoint" />
          </mxGeometry>
        </mxCell>
        <mxCell id="enlqpLdbjyHBV3dJq9Ab-14" value="" style="endArrow=classic;html=1;rounded=0;exitX=0.5;exitY=1;exitDx=0;exitDy=0;exitPerimeter=0;entryX=1;entryY=0;entryDx=0;entryDy=0;" parent="WIyWlLk6GJQsqaUBKTNV-1" source="hPkYf3LlJRqYPQVfd92O-3" target="enlqpLdbjyHBV3dJq9Ab-15" edge="1">
          <mxGeometry width="50" height="50" relative="1" as="geometry">
            <mxPoint x="448" y="1000.8399999999999" as="sourcePoint" />
            <mxPoint x="448" y="1030" as="targetPoint" />
            <Array as="points" />
          </mxGeometry>
        </mxCell>
        <mxCell id="enlqpLdbjyHBV3dJq9Ab-15" value="End" style="ellipse;whiteSpace=wrap;html=1;" parent="WIyWlLk6GJQsqaUBKTNV-1" vertex="1">
          <mxGeometry x="330" y="950" width="100" height="60" as="geometry" />
        </mxCell>
        <mxCell id="enlqpLdbjyHBV3dJq9Ab-17" value="num1&amp;gt;5?" style="rhombus;whiteSpace=wrap;html=1;" parent="WIyWlLk6GJQsqaUBKTNV-1" vertex="1">
          <mxGeometry x="327.5" y="720" width="105" height="110" as="geometry" />
        </mxCell>
        <mxCell id="hPkYf3LlJRqYPQVfd92O-0" value="true" style="text;html=1;align=center;verticalAlign=middle;resizable=0;points=[];autosize=1;strokeColor=none;fillColor=none;" vertex="1" parent="WIyWlLk6GJQsqaUBKTNV-1">
          <mxGeometry x="287.5" y="800" width="40" height="30" as="geometry" />
        </mxCell>
        <mxCell id="hPkYf3LlJRqYPQVfd92O-1" value="false" style="text;html=1;align=center;verticalAlign=middle;resizable=0;points=[];autosize=1;strokeColor=none;fillColor=none;" vertex="1" parent="WIyWlLk6GJQsqaUBKTNV-1">
          <mxGeometry x="415" y="798" width="50" height="30" as="geometry" />
        </mxCell>
        <mxCell id="hPkYf3LlJRqYPQVfd92O-2" value="Đạt" style="strokeWidth=2;html=1;shape=mxgraph.flowchart.display;whiteSpace=wrap;" vertex="1" parent="WIyWlLk6GJQsqaUBKTNV-1">
          <mxGeometry x="270" y="840" width="100" height="60" as="geometry" />
        </mxCell>
        <mxCell id="hPkYf3LlJRqYPQVfd92O-3" value="Không Đạt" style="strokeWidth=2;html=1;shape=mxgraph.flowchart.display;whiteSpace=wrap;" vertex="1" parent="WIyWlLk6GJQsqaUBKTNV-1">
          <mxGeometry x="390" y="840" width="100" height="60" as="geometry" />
        </mxCell>
      </root>
    </mxGraphModel>
  </diagram>
</mxfile>
